<svg width="207" height="203" viewBox="0 0 207 203" fill="none" xmlns="http://www.w3.org/2000/svg">
<path d="M206 101.5C206 156.986 160.128 202 103.5 202C46.8723 202 1 156.986 1 101.5C1 46.0137 46.8723 1 103.5 1C160.128 1 206 46.0137 206 101.5Z" fill="white" stroke="black" stroke-width="2"/>
<path d="M49.9959 159.3C48.5959 159.3 47.3126 158.992 46.1459 158.375C44.9959 157.742 44.0709 156.8 43.3709 155.55C42.6709 154.3 42.3209 152.767 42.3209 150.95C42.3209 149.6 42.5209 148.4 42.9209 147.35C43.3376 146.283 43.9042 145.383 44.6209 144.65C45.3376 143.917 46.1542 143.358 47.0709 142.975C48.0042 142.592 48.9876 142.4 50.0209 142.4C51.0709 142.4 52.0126 142.608 52.8459 143.025C53.6792 143.442 54.3709 143.942 54.9209 144.525L52.9709 146.75C52.5709 146.367 52.1376 146.083 51.6709 145.9C51.2042 145.7 50.6792 145.6 50.0959 145.6C49.3792 145.6 48.7126 145.817 48.0959 146.25C47.4959 146.667 47.0126 147.267 46.6459 148.05C46.2792 148.833 46.0959 149.758 46.0959 150.825C46.0959 151.942 46.2709 152.9 46.6209 153.7C46.9709 154.483 47.4542 155.083 48.0709 155.5C48.7042 155.917 49.4292 156.125 50.2459 156.125C50.8792 156.125 51.4459 155.992 51.9459 155.725C52.4459 155.458 52.8876 155.142 53.2709 154.775L55.1209 156.95C54.4209 157.733 53.6459 158.325 52.7959 158.725C51.9459 159.108 51.0126 159.3 49.9959 159.3ZM62.6717 159.3C61.6217 159.3 60.6383 159.05 59.7217 158.55C58.805 158.033 58.055 157.292 57.4717 156.325C56.905 155.342 56.6217 154.167 56.6217 152.8C56.6217 151.433 56.905 150.267 57.4717 149.3C58.055 148.317 58.805 147.575 59.7217 147.075C60.6383 146.558 61.6217 146.3 62.6717 146.3C63.705 146.3 64.68 146.558 65.5967 147.075C66.5133 147.575 67.255 148.317 67.8217 149.3C68.405 150.267 68.6967 151.433 68.6967 152.8C68.6967 154.167 68.405 155.342 67.8217 156.325C67.255 157.292 66.5133 158.033 65.5967 158.55C64.68 159.05 63.705 159.3 62.6717 159.3ZM62.6717 156.325C63.1717 156.325 63.5883 156.183 63.9217 155.9C64.2717 155.617 64.53 155.208 64.6967 154.675C64.8633 154.142 64.9467 153.517 64.9467 152.8C64.9467 152.083 64.8633 151.458 64.6967 150.925C64.53 150.392 64.2717 149.983 63.9217 149.7C63.5883 149.417 63.1717 149.275 62.6717 149.275C62.155 149.275 61.73 149.417 61.3967 149.7C61.0633 149.983 60.8133 150.392 60.6467 150.925C60.48 151.458 60.3967 152.083 60.3967 152.8C60.3967 153.517 60.48 154.142 60.6467 154.675C60.8133 155.208 61.0633 155.617 61.3967 155.9C61.73 156.183 62.155 156.325 62.6717 156.325ZM71.2139 159V146.6H74.2139L74.4639 148.175H74.5639C75.0805 147.658 75.6639 147.217 76.3139 146.85C76.9639 146.483 77.7055 146.3 78.5389 146.3C79.9055 146.3 80.8889 146.75 81.4889 147.65C82.0889 148.533 82.3889 149.75 82.3889 151.3V159H78.7139V151.775C78.7139 150.875 78.5889 150.258 78.3389 149.925C78.1055 149.592 77.7222 149.425 77.1889 149.425C76.7222 149.425 76.3222 149.533 75.9889 149.75C75.6555 149.95 75.2889 150.242 74.8889 150.625V159H71.2139ZM90.2955 159.275C88.7622 159.275 87.6622 158.833 86.9955 157.95C86.3288 157.05 85.9955 155.892 85.9955 154.475V149.475H84.3205V146.75L86.2205 146.6L86.6455 142.8H89.6955V146.6H92.6705V149.475H89.6955V154.425C89.6955 155.125 89.8372 155.633 90.1205 155.95C90.4205 156.25 90.8122 156.4 91.2955 156.4C91.4955 156.4 91.6955 156.383 91.8955 156.35C92.0955 156.317 92.2872 156.267 92.4705 156.2L93.0705 158.775C92.7538 158.908 92.3538 159.025 91.8705 159.125C91.4038 159.225 90.8788 159.275 90.2955 159.275ZM95.0908 159V146.6H98.0908L98.3408 148.775H98.4408C98.8908 147.942 99.4242 147.325 100.041 146.925C100.674 146.508 101.316 146.3 101.966 146.3C102.316 146.3 102.607 146.325 102.841 146.375C103.074 146.408 103.274 146.467 103.441 146.55L102.741 149.675C102.541 149.625 102.349 149.592 102.166 149.575C101.982 149.542 101.757 149.525 101.491 149.525C101.024 149.525 100.532 149.692 100.016 150.025C99.5158 150.358 99.0992 150.95 98.7658 151.8V159H95.0908ZM110.133 159.3C109.083 159.3 108.099 159.05 107.183 158.55C106.266 158.033 105.516 157.292 104.933 156.325C104.366 155.342 104.083 154.167 104.083 152.8C104.083 151.433 104.366 150.267 104.933 149.3C105.516 148.317 106.266 147.575 107.183 147.075C108.099 146.558 109.083 146.3 110.133 146.3C111.166 146.3 112.141 146.558 113.058 147.075C113.974 147.575 114.716 148.317 115.283 149.3C115.866 150.267 116.158 151.433 116.158 152.8C116.158 154.167 115.866 155.342 115.283 156.325C114.716 157.292 113.974 158.033 113.058 158.55C112.141 159.05 111.166 159.3 110.133 159.3ZM110.133 156.325C110.633 156.325 111.049 156.183 111.383 155.9C111.733 155.617 111.991 155.208 112.158 154.675C112.324 154.142 112.408 153.517 112.408 152.8C112.408 152.083 112.324 151.458 112.158 150.925C111.991 150.392 111.733 149.983 111.383 149.7C111.049 149.417 110.633 149.275 110.133 149.275C109.616 149.275 109.191 149.417 108.858 149.7C108.524 149.983 108.274 150.392 108.108 150.925C107.941 151.458 107.858 152.083 107.858 152.8C107.858 153.517 107.941 154.142 108.108 154.675C108.274 155.208 108.524 155.617 108.858 155.9C109.191 156.183 109.616 156.325 110.133 156.325ZM122.05 159.275C121.216 159.275 120.55 159.108 120.05 158.775C119.566 158.425 119.216 157.942 119 157.325C118.783 156.692 118.675 155.958 118.675 155.125V141.5H122.35V155.275C122.35 155.675 122.416 155.95 122.55 156.1C122.7 156.233 122.858 156.3 123.025 156.3C123.091 156.3 123.15 156.3 123.2 156.3C123.266 156.283 123.35 156.267 123.45 156.25L123.9 158.975C123.7 159.058 123.441 159.125 123.125 159.175C122.825 159.242 122.466 159.275 122.05 159.275ZM131.133 159V142.7H136.733C137.933 142.7 139.016 142.867 139.983 143.2C140.966 143.517 141.75 144.058 142.333 144.825C142.916 145.592 143.208 146.633 143.208 147.95C143.208 149.217 142.916 150.258 142.333 151.075C141.75 151.892 140.975 152.5 140.008 152.9C139.041 153.283 137.983 153.475 136.833 153.475H134.808V159H131.133ZM134.808 150.55H136.608C137.625 150.55 138.375 150.325 138.858 149.875C139.358 149.425 139.608 148.783 139.608 147.95C139.608 147.083 139.341 146.483 138.808 146.15C138.275 145.8 137.508 145.625 136.508 145.625H134.808V150.55ZM150.738 159.3C149.555 159.3 148.488 159.042 147.538 158.525C146.588 158.008 145.838 157.267 145.288 156.3C144.738 155.333 144.463 154.167 144.463 152.8C144.463 151.45 144.738 150.292 145.288 149.325C145.855 148.358 146.588 147.617 147.488 147.1C148.388 146.567 149.33 146.3 150.313 146.3C151.497 146.3 152.48 146.567 153.263 147.1C154.047 147.617 154.63 148.325 155.013 149.225C155.397 150.125 155.588 151.133 155.588 152.25C155.588 152.567 155.572 152.883 155.538 153.2C155.505 153.5 155.472 153.742 155.438 153.925H147.313L147.263 151.375H152.438C152.438 150.725 152.28 150.192 151.963 149.775C151.647 149.342 151.122 149.125 150.388 149.125C149.988 149.125 149.597 149.233 149.213 149.45C148.83 149.667 148.513 150.042 148.263 150.575C148.013 151.108 147.897 151.85 147.913 152.8C147.93 153.733 148.097 154.467 148.413 155C148.747 155.533 149.163 155.917 149.663 156.15C150.163 156.367 150.688 156.475 151.238 156.475C151.722 156.475 152.18 156.408 152.613 156.275C153.063 156.125 153.505 155.925 153.938 155.675L155.138 157.925C154.522 158.358 153.822 158.7 153.038 158.95C152.255 159.183 151.488 159.3 150.738 159.3ZM162.659 159.275C161.125 159.275 160.025 158.833 159.359 157.95C158.692 157.05 158.359 155.892 158.359 154.475V149.475H156.684V146.75L158.584 146.6L159.009 142.8H162.059V146.6H165.034V149.475H162.059V154.425C162.059 155.125 162.2 155.633 162.484 155.95C162.784 156.25 163.175 156.4 163.659 156.4C163.859 156.4 164.059 156.383 164.259 156.35C164.459 156.317 164.65 156.267 164.834 156.2L165.434 158.775C165.117 158.908 164.717 159.025 164.234 159.125C163.767 159.225 163.242 159.275 162.659 159.275Z" fill="black"/>
<path d="M83.6691 85.9441L79.2141 83.7166C78.9116 83.5646 78.578 83.4852 78.2395 83.4845H77.8528C77.4234 83.4899 77.0049 83.6211 76.6492 83.8619C76.2935 84.1026 76.0162 84.4424 75.8516 84.8391C75.687 85.2358 75.6423 85.672 75.7231 86.0939C75.8038 86.5157 76.0065 86.9046 76.3059 87.2125L84.3188 95.2717C84.6577 95.6147 84.8734 96.0603 84.9322 96.5389C84.9909 97.0175 84.8895 97.5021 84.6436 97.9169C84.4783 98.2167 84.2428 98.472 83.9573 98.6609C83.6718 98.8499 83.3448 98.9668 83.0042 99.0018C82.6637 99.0367 82.3197 98.9887 82.0018 98.8617C81.6838 98.7347 81.4014 98.5326 81.1786 98.2726L75.2386 92.3326C73.4905 90.5953 72.167 88.4778 71.3714 86.1451L66.7308 72.3934C66.5796 72.0208 66.3076 71.7098 65.9584 71.5102C65.6093 71.3107 65.2032 71.2342 64.8054 71.2931C64.4076 71.352 64.0411 71.5428 63.7647 71.8349C63.4883 72.127 63.3181 72.5034 63.2813 72.9039C63.2785 79.947 63.858 86.9783 65.0138 93.9259L65.4159 96.3545C66.0443 100.111 67.4626 103.691 69.577 106.858L76.8628 117.794C77.4608 118.695 77.8634 119.711 78.0446 120.776C78.2258 121.842 78.1815 122.934 77.9147 123.982C77.8409 124.322 77.8441 124.674 77.924 125.013C78.0039 125.352 78.1585 125.668 78.3764 125.94C78.5944 126.211 78.8702 126.43 79.1837 126.581C79.4973 126.732 79.8406 126.811 80.1886 126.812H89.1759C90.2458 126.812 91.3051 126.602 92.2933 126.192C93.2814 125.782 94.1791 125.181 94.9348 124.424C95.6906 123.667 96.2896 122.768 96.6976 121.779C97.1056 120.79 97.3145 119.73 97.3125 118.66V108.126C97.3109 104.212 96.4169 100.35 94.6983 96.8341C92.3156 92.0928 88.4403 88.2663 83.6691 85.9441Z" fill="black"/>
<path d="M141.924 71.125C141.548 71.1248 141.182 71.2427 140.877 71.4619C140.571 71.6812 140.343 71.9908 140.223 72.347L135.582 86.0988C134.787 88.4314 133.463 90.5489 131.715 92.2863L125.775 98.2263C125.552 98.4862 125.27 98.6883 124.952 98.8153C124.634 98.9423 124.29 98.9903 123.949 98.9554C123.609 98.9204 123.282 98.8034 122.996 98.6145C122.711 98.4256 122.475 98.1703 122.31 97.8705C122.064 97.4557 121.963 96.9711 122.021 96.4925C122.08 96.0139 122.296 95.5683 122.635 95.2253L130.648 87.1661C130.947 86.8582 131.15 86.4693 131.231 86.0475C131.311 85.6256 131.267 85.1894 131.102 84.7927C130.937 84.396 130.66 84.0562 130.304 83.8155C129.949 83.5747 129.53 83.4435 129.101 83.4381H128.714C128.376 83.4388 128.042 83.5183 127.74 83.6702L123.269 85.8977C118.508 88.204 114.633 92.0075 112.24 96.7258C110.527 100.28 109.653 104.181 109.687 108.126V118.66C109.685 119.73 109.894 120.79 110.302 121.779C110.71 122.768 111.309 123.667 112.065 124.424C112.821 125.181 113.719 125.782 114.707 126.192C115.695 126.602 116.754 126.813 117.824 126.812H126.811C127.165 126.811 127.513 126.729 127.83 126.574C128.147 126.418 128.425 126.193 128.643 125.914C128.86 125.636 129.011 125.312 129.085 124.966C129.159 124.621 129.154 124.263 129.07 123.92C128.803 122.872 128.759 121.78 128.94 120.715C129.121 119.649 129.524 118.633 130.122 117.732L137.407 106.796C139.522 103.629 140.94 100.049 141.569 96.2927L141.971 93.8641C143.128 86.9372 143.713 79.9268 143.719 72.9039C143.715 72.4307 143.524 71.9783 143.188 71.6451C142.852 71.3119 142.398 71.125 141.924 71.125Z" fill="black"/>
<path d="M116.664 73.337C116.75 71.5567 116.474 69.7774 115.852 68.1069C115.231 66.4365 114.276 64.9097 113.047 63.6191C111.817 62.3286 110.338 61.3011 108.7 60.5991C107.062 59.8971 105.298 59.5351 103.515 59.5351C101.733 59.5351 99.9692 59.8971 98.3308 60.5991C96.6925 61.3011 95.2137 62.3286 93.9843 63.6191C92.7548 64.9097 91.8003 66.4365 91.1785 68.1069C90.5567 69.7774 90.2806 71.5567 90.367 73.337C90.367 80.6073 96.2606 83.6856 103.531 83.6856C110.801 83.6856 116.664 80.6073 116.664 73.337Z" fill="black"/>
<path d="M88.9903 49.6544C85.9894 49.6544 83.5453 53.5216 83.5453 56.538C83.5453 59.5544 85.9894 60.5444 88.9903 60.5444C91.9913 60.5444 94.4353 59.5389 94.4353 56.538C94.4353 53.537 91.9913 49.6544 88.9903 49.6544Z" fill="black"/>
<path d="M112.58 56.538C112.58 59.5389 115.024 60.5444 118.025 60.5444C121.026 60.5444 123.47 59.5389 123.47 56.538C123.47 53.537 121.026 49.6544 118.025 49.6544C115.024 49.6544 112.58 53.5216 112.58 56.538Z" fill="black"/>
<path d="M97.4362 48.3086C97.4362 51.8509 100.159 52.9492 103.5 52.9492C106.841 52.9492 109.564 51.7736 109.564 48.3086C109.564 44.8436 106.857 40.1875 103.5 40.1875C100.143 40.1875 97.4362 44.8281 97.4362 48.3086Z" fill="black"/>
</svg>
