<svg width="125" height="135" viewBox="0 0 125 135" fill="none" xmlns="http://www.w3.org/2000/svg">
<path d="M8.9959 125.3C7.5959 125.3 6.31257 124.992 5.1459 124.375C3.9959 123.742 3.0709 122.8 2.3709 121.55C1.6709 120.3 1.3209 118.767 1.3209 116.95C1.3209 115.6 1.5209 114.4 1.9209 113.35C2.33757 112.283 2.90423 111.383 3.6209 110.65C4.33757 109.917 5.15423 109.358 6.0709 108.975C7.00423 108.592 7.98757 108.4 9.0209 108.4C10.0709 108.4 11.0126 108.608 11.8459 109.025C12.6792 109.442 13.3709 109.942 13.9209 110.525L11.9709 112.75C11.5709 112.367 11.1376 112.083 10.6709 111.9C10.2042 111.7 9.67923 111.6 9.0959 111.6C8.37923 111.6 7.71257 111.817 7.0959 112.25C6.4959 112.667 6.01257 113.267 5.6459 114.05C5.27923 114.833 5.0959 115.758 5.0959 116.825C5.0959 117.942 5.2709 118.9 5.6209 119.7C5.9709 120.483 6.45423 121.083 7.0709 121.5C7.70423 121.917 8.42923 122.125 9.2459 122.125C9.87923 122.125 10.4459 121.992 10.9459 121.725C11.4459 121.458 11.8876 121.142 12.2709 120.775L14.1209 122.95C13.4209 123.733 12.6459 124.325 11.7959 124.725C10.9459 125.108 10.0126 125.3 8.9959 125.3ZM21.6717 125.3C20.6217 125.3 19.6383 125.05 18.7217 124.55C17.805 124.033 17.055 123.292 16.4717 122.325C15.905 121.342 15.6217 120.167 15.6217 118.8C15.6217 117.433 15.905 116.267 16.4717 115.3C17.055 114.317 17.805 113.575 18.7217 113.075C19.6383 112.558 20.6217 112.3 21.6717 112.3C22.705 112.3 23.68 112.558 24.5967 113.075C25.5133 113.575 26.255 114.317 26.8217 115.3C27.405 116.267 27.6967 117.433 27.6967 118.8C27.6967 120.167 27.405 121.342 26.8217 122.325C26.255 123.292 25.5133 124.033 24.5967 124.55C23.68 125.05 22.705 125.3 21.6717 125.3ZM21.6717 122.325C22.1717 122.325 22.5883 122.183 22.9217 121.9C23.2717 121.617 23.53 121.208 23.6967 120.675C23.8633 120.142 23.9467 119.517 23.9467 118.8C23.9467 118.083 23.8633 117.458 23.6967 116.925C23.53 116.392 23.2717 115.983 22.9217 115.7C22.5883 115.417 22.1717 115.275 21.6717 115.275C21.155 115.275 20.73 115.417 20.3967 115.7C20.0633 115.983 19.8133 116.392 19.6467 116.925C19.48 117.458 19.3967 118.083 19.3967 118.8C19.3967 119.517 19.48 120.142 19.6467 120.675C19.8133 121.208 20.0633 121.617 20.3967 121.9C20.73 122.183 21.155 122.325 21.6717 122.325ZM30.2139 125V112.6H33.2139L33.4639 114.175H33.5639C34.0805 113.658 34.6639 113.217 35.3139 112.85C35.9639 112.483 36.7055 112.3 37.5389 112.3C38.9055 112.3 39.8889 112.75 40.4889 113.65C41.0889 114.533 41.3889 115.75 41.3889 117.3V125H37.7139V117.775C37.7139 116.875 37.5889 116.258 37.3389 115.925C37.1055 115.592 36.7222 115.425 36.1889 115.425C35.7222 115.425 35.3222 115.533 34.9889 115.75C34.6555 115.95 34.2889 116.242 33.8889 116.625V125H30.2139ZM49.2955 125.275C47.7622 125.275 46.6622 124.833 45.9955 123.95C45.3288 123.05 44.9955 121.892 44.9955 120.475V115.475H43.3205V112.75L45.2205 112.6L45.6455 108.8H48.6955V112.6H51.6705V115.475H48.6955V120.425C48.6955 121.125 48.8372 121.633 49.1205 121.95C49.4205 122.25 49.8122 122.4 50.2955 122.4C50.4955 122.4 50.6955 122.383 50.8955 122.35C51.0955 122.317 51.2872 122.267 51.4705 122.2L52.0705 124.775C51.7538 124.908 51.3538 125.025 50.8705 125.125C50.4038 125.225 49.8788 125.275 49.2955 125.275ZM54.0908 125V112.6H57.0908L57.3408 114.775H57.4408C57.8908 113.942 58.4242 113.325 59.0408 112.925C59.6742 112.508 60.3158 112.3 60.9658 112.3C61.3158 112.3 61.6075 112.325 61.8408 112.375C62.0742 112.408 62.2742 112.467 62.4408 112.55L61.7408 115.675C61.5408 115.625 61.3492 115.592 61.1658 115.575C60.9825 115.542 60.7575 115.525 60.4908 115.525C60.0242 115.525 59.5325 115.692 59.0158 116.025C58.5158 116.358 58.0992 116.95 57.7658 117.8V125H54.0908ZM69.1326 125.3C68.0826 125.3 67.0993 125.05 66.1826 124.55C65.266 124.033 64.516 123.292 63.9326 122.325C63.366 121.342 63.0826 120.167 63.0826 118.8C63.0826 117.433 63.366 116.267 63.9326 115.3C64.516 114.317 65.266 113.575 66.1826 113.075C67.0993 112.558 68.0826 112.3 69.1326 112.3C70.166 112.3 71.141 112.558 72.0576 113.075C72.9743 113.575 73.716 114.317 74.2826 115.3C74.866 116.267 75.1576 117.433 75.1576 118.8C75.1576 120.167 74.866 121.342 74.2826 122.325C73.716 123.292 72.9743 124.033 72.0576 124.55C71.141 125.05 70.166 125.3 69.1326 125.3ZM69.1326 122.325C69.6326 122.325 70.0493 122.183 70.3826 121.9C70.7326 121.617 70.991 121.208 71.1576 120.675C71.3243 120.142 71.4076 119.517 71.4076 118.8C71.4076 118.083 71.3243 117.458 71.1576 116.925C70.991 116.392 70.7326 115.983 70.3826 115.7C70.0493 115.417 69.6326 115.275 69.1326 115.275C68.616 115.275 68.191 115.417 67.8576 115.7C67.5243 115.983 67.2743 116.392 67.1076 116.925C66.941 117.458 66.8576 118.083 66.8576 118.8C66.8576 119.517 66.941 120.142 67.1076 120.675C67.2743 121.208 67.5243 121.617 67.8576 121.9C68.191 122.183 68.616 122.325 69.1326 122.325ZM81.0498 125.275C80.2165 125.275 79.5498 125.108 79.0498 124.775C78.5665 124.425 78.2165 123.942 77.9998 123.325C77.7831 122.692 77.6748 121.958 77.6748 121.125V107.5H81.3498V121.275C81.3498 121.675 81.4165 121.95 81.5498 122.1C81.6998 122.233 81.8581 122.3 82.0248 122.3C82.0915 122.3 82.1498 122.3 82.1998 122.3C82.2665 122.283 82.3498 122.267 82.4498 122.25L82.8998 124.975C82.6998 125.058 82.4415 125.125 82.1248 125.175C81.8248 125.242 81.4665 125.275 81.0498 125.275ZM90.133 125V108.7H95.733C96.933 108.7 98.0163 108.867 98.983 109.2C99.9663 109.517 100.75 110.058 101.333 110.825C101.916 111.592 102.208 112.633 102.208 113.95C102.208 115.217 101.916 116.258 101.333 117.075C100.75 117.892 99.9747 118.5 99.008 118.9C98.0413 119.283 96.983 119.475 95.833 119.475H93.808V125H90.133ZM93.808 116.55H95.608C96.6247 116.55 97.3747 116.325 97.858 115.875C98.358 115.425 98.608 114.783 98.608 113.95C98.608 113.083 98.3413 112.483 97.808 112.15C97.2747 111.8 96.508 111.625 95.508 111.625H93.808V116.55ZM109.738 125.3C108.555 125.3 107.488 125.042 106.538 124.525C105.588 124.008 104.838 123.267 104.288 122.3C103.738 121.333 103.463 120.167 103.463 118.8C103.463 117.45 103.738 116.292 104.288 115.325C104.855 114.358 105.588 113.617 106.488 113.1C107.388 112.567 108.33 112.3 109.313 112.3C110.497 112.3 111.48 112.567 112.263 113.1C113.047 113.617 113.63 114.325 114.013 115.225C114.397 116.125 114.588 117.133 114.588 118.25C114.588 118.567 114.572 118.883 114.538 119.2C114.505 119.5 114.472 119.742 114.438 119.925H106.313L106.263 117.375H111.438C111.438 116.725 111.28 116.192 110.963 115.775C110.647 115.342 110.122 115.125 109.388 115.125C108.988 115.125 108.597 115.233 108.213 115.45C107.83 115.667 107.513 116.042 107.263 116.575C107.013 117.108 106.897 117.85 106.913 118.8C106.93 119.733 107.097 120.467 107.413 121C107.747 121.533 108.163 121.917 108.663 122.15C109.163 122.367 109.688 122.475 110.238 122.475C110.722 122.475 111.18 122.408 111.613 122.275C112.063 122.125 112.505 121.925 112.938 121.675L114.138 123.925C113.522 124.358 112.822 124.7 112.038 124.95C111.255 125.183 110.488 125.3 109.738 125.3ZM121.659 125.275C120.125 125.275 119.025 124.833 118.359 123.95C117.692 123.05 117.359 121.892 117.359 120.475V115.475H115.684V112.75L117.584 112.6L118.009 108.8H121.059V112.6H124.034V115.475H121.059V120.425C121.059 121.125 121.2 121.633 121.484 121.95C121.784 122.25 122.175 122.4 122.659 122.4C122.859 122.4 123.059 122.383 123.259 122.35C123.459 122.317 123.65 122.267 123.834 122.2L124.434 124.775C124.117 124.908 123.717 125.025 123.234 125.125C122.767 125.225 122.242 125.275 121.659 125.275Z" fill="black"/>
<path d="M42.6691 51.9441L38.2141 49.7166C37.9116 49.5646 37.578 49.4852 37.2395 49.4845H36.8528C36.4234 49.4899 36.0049 49.6211 35.6492 49.8619C35.2935 50.1026 35.0162 50.4424 34.8516 50.8391C34.687 51.2358 34.6423 51.672 34.7231 52.0939C34.8038 52.5157 35.0065 52.9046 35.3059 53.2125L43.3188 61.2717C43.6577 61.6147 43.8734 62.0603 43.9322 62.5389C43.9909 63.0175 43.8895 63.5021 43.6436 63.9169C43.4783 64.2167 43.2428 64.472 42.9573 64.6609C42.6718 64.8499 42.3448 64.9668 42.0042 65.0018C41.6637 65.0367 41.3197 64.9887 41.0018 64.8617C40.6838 64.7347 40.4014 64.5326 40.1786 64.2726L34.2386 58.3326C32.4905 56.5953 31.167 54.4778 30.3714 52.1451L25.7308 38.3934C25.5796 38.0208 25.3076 37.7098 24.9584 37.5102C24.6093 37.3107 24.2032 37.2342 23.8054 37.2931C23.4076 37.352 23.0411 37.5428 22.7647 37.8349C22.4883 38.127 22.3181 38.5034 22.2813 38.9039C22.2785 45.947 22.858 52.9783 24.0138 59.9259L24.4159 62.3545C25.0443 66.1106 26.4626 69.6905 28.577 72.8578L35.8628 83.7942C36.4608 84.6948 36.8634 85.7107 37.0446 86.7765C37.2258 87.8422 37.1815 88.9341 36.9147 89.9817C36.8409 90.3218 36.8441 90.6741 36.924 91.0129C37.0039 91.3516 37.1585 91.6682 37.3764 91.9395C37.5944 92.2108 37.8702 92.43 38.1837 92.5811C38.4973 92.7321 38.8406 92.8112 39.1886 92.8125H48.1759C49.2458 92.8125 50.3051 92.6015 51.2933 92.1917C52.2814 91.7818 53.1791 91.1811 53.9348 90.4239C54.6906 89.6667 55.2896 88.7679 55.6976 87.7789C56.1056 86.79 56.3145 85.7303 56.3125 84.6605V74.1262C56.3109 70.2124 55.4169 66.3504 53.6983 62.8341C51.3156 58.0928 47.4403 54.2663 42.6691 51.9441Z" fill="black"/>
<path d="M100.924 37.125C100.548 37.1248 100.182 37.2427 99.8767 37.4619C99.5714 37.6812 99.3427 37.9908 99.2228 38.347L94.5822 52.0988C93.7866 54.4314 92.4631 56.5489 90.715 58.2863L84.775 64.2263C84.5522 64.4862 84.2698 64.6883 83.9518 64.8153C83.6339 64.9423 83.2899 64.9903 82.9494 64.9554C82.6088 64.9204 82.2818 64.8034 81.9963 64.6145C81.7108 64.4256 81.4753 64.1703 81.31 63.8705C81.0641 63.4557 80.9627 62.9711 81.0214 62.4925C81.0802 62.0139 81.2959 61.5683 81.6348 61.2253L89.6477 53.1661C89.9471 52.8582 90.1498 52.4693 90.2305 52.0475C90.3113 51.6256 90.2666 51.1894 90.102 50.7927C89.9374 50.396 89.6601 50.0562 89.3044 49.8155C88.9487 49.5747 88.5302 49.4435 88.1008 49.4381H87.7141C87.3756 49.4388 87.042 49.5183 86.7395 49.6702L82.2691 51.8977C77.5076 54.204 73.6334 58.0075 71.2398 62.7258C69.5265 66.2801 68.6532 70.1807 68.6875 74.1262V84.6605C68.6855 85.7303 68.8944 86.79 69.3024 87.7789C69.7104 88.7679 70.3094 89.6667 71.0652 90.4239C71.8209 91.1811 72.7186 91.7818 73.7068 92.1917C74.6949 92.6015 75.7542 92.8125 76.8241 92.8125H85.8114C86.1647 92.811 86.513 92.7294 86.8302 92.5738C87.1474 92.4182 87.4251 92.1926 87.6425 91.9142C87.8599 91.6357 88.0113 91.3116 88.0854 90.9661C88.1594 90.6207 88.1541 90.2629 88.0698 89.9198C87.803 88.8723 87.7588 87.7804 87.9399 86.7146C88.1211 85.6489 88.5237 84.6329 89.1217 83.7323L96.4075 72.7959C98.522 69.6286 99.9402 66.0487 100.569 62.2927L100.971 59.8641C102.128 52.9372 102.713 45.9268 102.719 38.9039C102.715 38.4307 102.524 37.9783 102.188 37.6451C101.852 37.3119 101.398 37.125 100.924 37.125Z" fill="black"/>
<path d="M75.6639 39.337C75.7503 37.5567 75.4742 35.7774 74.8524 34.1069C74.2306 32.4365 73.2761 30.9097 72.0466 29.6191C70.8172 28.3286 69.3385 27.3011 67.7001 26.5991C66.0618 25.8971 64.2979 25.5351 62.5155 25.5351C60.733 25.5351 58.9692 25.8971 57.3308 26.5991C55.6925 27.3011 54.2137 28.3286 52.9843 29.6191C51.7548 30.9097 50.8003 32.4365 50.1785 34.1069C49.5567 35.7774 49.2806 37.5567 49.367 39.337C49.367 46.6073 55.2606 49.6856 62.5309 49.6856C69.8013 49.6856 75.6639 46.6073 75.6639 39.337Z" fill="black"/>
<path d="M47.9903 15.6544C44.9894 15.6544 42.5453 19.5216 42.5453 22.538C42.5453 25.5544 44.9894 26.5444 47.9903 26.5444C50.9912 26.5444 53.4353 25.5389 53.4353 22.538C53.4353 19.537 50.9912 15.6544 47.9903 15.6544Z" fill="black"/>
<path d="M71.5801 22.538C71.5801 25.5389 74.0242 26.5444 77.0251 26.5444C80.0261 26.5444 82.4701 25.5389 82.4701 22.538C82.4701 19.537 80.0261 15.6544 77.0251 15.6544C74.0242 15.6544 71.5801 19.5216 71.5801 22.538Z" fill="black"/>
<path d="M56.4363 14.3086C56.4363 17.8509 59.1588 18.9492 62.5 18.9492C65.8413 18.9492 68.5638 17.7736 68.5638 14.3086C68.5638 10.8436 65.8567 6.1875 62.5 6.1875C59.1433 6.1875 56.4363 10.8281 56.4363 14.3086Z" fill="black"/>
</svg>
