<svg width="168" height="93" viewBox="0 0 168 93" fill="none" xmlns="http://www.w3.org/2000/svg">
<path d="M95.6371 22.9682C95.702 21.7585 95.4946 20.5494 95.0274 19.4143C94.5602 18.2793 93.8429 17.2418 92.9191 16.3649C91.9953 15.488 90.8841 14.7899 89.653 14.3129C88.422 13.8358 87.0966 13.5899 85.7572 13.5899C84.4179 13.5899 83.0925 13.8358 81.8614 14.3129C80.6303 14.7899 79.5192 15.488 78.5954 16.3649C77.6716 17.2418 76.9543 18.2793 76.4871 19.4143C76.0199 20.5494 75.8124 21.7585 75.8773 22.9682C75.8773 27.9083 80.3059 30 85.7689 30C91.2319 30 95.6371 27.9083 95.6371 22.9682Z" fill="black"/>
<path d="M74.0914 6.43269C71.8365 6.43269 70 9.06042 70 11.11C70 13.1597 71.8365 13.8324 74.0914 13.8324C76.3464 13.8324 78.1829 13.1492 78.1829 11.11C78.1829 9.07093 76.3464 6.43269 74.0914 6.43269Z" fill="black"/>
<path d="M91.8171 11.11C91.8171 13.1492 93.6536 13.8324 95.9086 13.8324C98.1635 13.8324 100 13.1492 100 11.11C100 9.07093 98.1635 6.43269 95.9086 6.43269C93.6536 6.43269 91.8171 9.06042 91.8171 11.11Z" fill="black"/>
<path d="M80.4379 5.51824C80.4379 7.92524 82.4836 8.67152 84.9942 8.67152C87.5049 8.67152 89.5506 7.87268 89.5506 5.51824C89.5506 3.16379 87.5165 0 84.9942 0C82.472 0 80.4379 3.15328 80.4379 5.51824Z" fill="black"/>
<path d="M6.3125 75.5899C7.41667 75.5899 8.5625 75.0482 9.75 73.9649C10.9375 72.8607 12.0938 71.1003 13.2188 68.6836L14.125 69.2774C13.5625 70.5899 12.9062 71.7878 12.1562 72.8711C11.4271 73.9544 10.6354 74.8815 9.78125 75.6524C8.92708 76.4232 8.01042 77.0274 7.03125 77.4649C6.07292 77.8815 5.09375 78.0899 4.09375 78.0899C3.63542 78.0899 3.17708 77.9336 2.71875 77.6211C2.26042 77.3086 1.84375 76.9128 1.46875 76.4336C1.09375 75.9544 0.791667 75.444 0.5625 74.9024C0.3125 74.3399 0.1875 73.8086 0.1875 73.3086C0.1875 72.6836 0.260417 71.9753 0.40625 71.1836C0.552083 70.3919 0.739583 69.569 0.96875 68.7149C1.19792 67.8607 1.44792 67.0169 1.71875 66.1836C1.98958 65.3503 2.25 64.5899 2.5 63.9024C2.75 63.194 2.96875 62.5899 3.15625 62.0899C3.34375 61.5899 3.47917 61.2565 3.5625 61.0899C3.97917 60.0899 4.59375 59.1211 5.40625 58.1836C6.21875 57.2461 7.125 56.4128 8.125 55.6836C9.14583 54.9544 10.1979 54.3711 11.2812 53.9336C12.3854 53.4961 13.4375 53.2774 14.4375 53.2774C14.7708 53.2774 15.0938 53.3815 15.4062 53.5899C15.7188 53.7774 16 54.0482 16.25 54.4024C16.5 54.7357 16.6979 55.1419 16.8438 55.6211C16.9896 56.0794 17.0625 56.5794 17.0625 57.1211C17.0625 57.9336 16.9375 58.6211 16.6875 59.1836C16.4583 59.7461 16.1667 60.2253 15.8125 60.6211C15.4583 60.9961 15.0625 61.2982 14.625 61.5274C14.2083 61.7357 13.8021 61.9024 13.4062 62.0274C13.0312 62.1315 12.6979 62.2044 12.4062 62.2461C12.1354 62.2669 11.9583 62.2774 11.875 62.2774C12.1042 61.8399 12.2917 61.3711 12.4375 60.8711C12.5833 60.3711 12.6979 59.8919 12.7812 59.4336C12.8854 58.9544 12.9479 58.5169 12.9688 58.1211C13.0104 57.7253 13.0312 57.3919 13.0312 57.1211C13.0312 56.8919 13.0104 56.6628 12.9688 56.4336C12.9479 56.1836 12.9062 55.9544 12.8438 55.7461C12.7812 55.5378 12.6875 55.3711 12.5625 55.2461C12.4583 55.1211 12.3229 55.0586 12.1562 55.0586C11.8021 55.0586 11.4271 55.2982 11.0312 55.7774C10.6354 56.2357 10.2396 56.8607 9.84375 57.6524C9.44792 58.444 9.05208 59.3503 8.65625 60.3711C8.26042 61.3919 7.88542 62.4544 7.53125 63.5586C7.17708 64.6628 6.84375 65.7669 6.53125 66.8711C6.23958 67.9544 5.97917 68.9649 5.75 69.9024C5.52083 70.819 5.34375 71.6211 5.21875 72.3086C5.09375 72.9961 5.03125 73.4753 5.03125 73.7461C5.03125 74.3503 5.14583 74.8086 5.375 75.1211C5.625 75.4336 5.9375 75.5899 6.3125 75.5899ZM18.6875 61.4024C19.1875 60.194 19.8021 59.1107 20.5312 58.1524C21.2604 57.1732 22.0625 56.3503 22.9375 55.6836C23.8125 54.9961 24.7396 54.4753 25.7188 54.1211C26.6979 53.7669 27.6875 53.5899 28.6875 53.5899C29.125 53.5899 29.6042 53.7149 30.125 53.9649C30.6667 54.194 31.1667 54.5169 31.625 54.9336C32.0833 55.3503 32.4583 55.8607 32.75 56.4649C33.0625 57.0482 33.2188 57.694 33.2188 58.4024C33.2188 59.0065 33.1458 59.7044 33 60.4961C32.8542 61.2669 32.6667 62.069 32.4375 62.9024C32.2083 63.7149 31.9583 64.5274 31.6875 65.3399C31.4167 66.1524 31.1562 66.9024 30.9062 67.5899C30.6562 68.2565 30.4271 68.8294 30.2188 69.3086C30.0312 69.7878 29.8958 70.1107 29.8125 70.2774C29.3125 71.5065 28.6979 72.6003 27.9688 73.5586C27.2396 74.5169 26.4375 75.3399 25.5625 76.0274C24.6875 76.694 23.7604 77.2044 22.7812 77.5586C21.8229 77.9128 20.8438 78.0899 19.8438 78.0899C19.4062 78.0899 18.9271 77.9753 18.4062 77.7461C17.8646 77.5169 17.3646 77.194 16.9062 76.7774C16.4479 76.3399 16.0729 75.8294 15.7812 75.2461C15.4688 74.6628 15.3125 74.0169 15.3125 73.3086C15.3125 72.6836 15.3854 71.9857 15.5312 71.2149C15.6771 70.4232 15.8646 69.6211 16.0938 68.8086C16.3229 67.9753 16.5729 67.1524 16.8438 66.3399C17.1146 65.5274 17.375 64.7878 17.625 64.1211C17.875 63.4544 18.0938 62.8815 18.2812 62.4024C18.4688 61.9024 18.6042 61.569 18.6875 61.4024ZM27.3438 55.3086C26.8646 55.3086 26.3438 55.7357 25.7812 56.5899C25.2396 57.4232 24.6875 58.4961 24.125 59.8086C23.5833 61.1211 23.0521 62.5586 22.5312 64.1211C22.0312 65.6628 21.5833 67.1524 21.1875 68.5899C20.8125 70.0274 20.5 71.2982 20.25 72.4024C20.0208 73.4857 19.9062 74.2149 19.9062 74.5899C19.9062 75.194 20.0208 75.6315 20.25 75.9024C20.4792 76.1732 20.7917 76.3086 21.1875 76.3086C21.5417 76.3086 21.9167 76.069 22.3125 75.5899C22.7083 75.0899 23.1146 74.4336 23.5312 73.6211C23.9479 72.8086 24.3542 71.8711 24.75 70.8086C25.1667 69.7461 25.5625 68.6524 25.9375 67.5274C26.3125 66.3815 26.6562 65.2461 26.9688 64.1211C27.3021 62.9961 27.5833 61.9544 27.8125 60.9961C28.0625 60.0378 28.25 59.2149 28.375 58.5274C28.5208 57.819 28.5938 57.3294 28.5938 57.0586C28.5938 56.4544 28.4792 56.0169 28.25 55.7461C28.0208 55.4544 27.7188 55.3086 27.3438 55.3086ZM36.4375 77.6524C36.2083 77.694 35.9583 77.7253 35.6875 77.7461C35.2083 77.8086 34.5833 77.8399 33.8125 77.8399C33.4583 77.8399 33.0833 77.819 32.6875 77.7774C32.2917 77.7565 31.9062 77.7149 31.5312 77.6524L31.3125 77.3399C31.4167 77.1315 31.6042 76.7044 31.875 76.0586C32.125 75.4128 32.4271 74.6315 32.7812 73.7149C33.1146 72.7982 33.4896 71.7774 33.9062 70.6524C34.3021 69.5274 34.6979 68.3815 35.0938 67.2149C35.4896 66.0482 35.875 64.9024 36.25 63.7774C36.625 62.6524 36.9479 61.6211 37.2188 60.6836C37.5104 59.7461 37.7396 58.9544 37.9062 58.3086C38.0938 57.6419 38.1875 57.194 38.1875 56.9649C38.1875 56.7357 38.1562 56.5586 38.0938 56.4336C38.0521 56.3086 38.0104 56.194 37.9688 56.0899C37.9062 56.0065 37.8438 55.9232 37.7812 55.8399V55.3711C38.2604 55.0794 38.8229 54.819 39.4688 54.5899C40.1146 54.3607 40.7396 54.1732 41.3438 54.0274C42.0312 53.8607 42.75 53.7149 43.5 53.5899L43.625 53.7774C43.625 54.0274 43.5729 54.4336 43.4688 54.9961C43.3646 55.5586 43.2396 56.1628 43.0938 56.8086C42.9479 57.4544 42.7917 58.0899 42.625 58.7149C42.4792 59.319 42.3646 59.8086 42.2812 60.1836C42.9271 59.3711 43.5833 58.5586 44.25 57.7461C44.9167 56.9128 45.5521 56.1732 46.1562 55.5274C46.7812 54.8815 47.3542 54.3607 47.875 53.9649C48.3958 53.5482 48.8333 53.3399 49.1875 53.3399C49.3333 53.3399 49.5833 53.4128 49.9375 53.5586C50.3125 53.6836 50.6979 53.8919 51.0938 54.1836C51.4896 54.4544 51.8333 54.8086 52.125 55.2461C52.4375 55.6628 52.6042 56.1732 52.625 56.7774C52.625 56.9857 52.4792 57.4649 52.1875 58.2149C51.8958 58.9649 51.5312 59.8607 51.0938 60.9024C50.6771 61.944 50.2188 63.0794 49.7188 64.3086C49.2188 65.5378 48.75 66.7461 48.3125 67.9336C47.8958 69.1211 47.5417 70.2253 47.25 71.2461C46.9583 72.2669 46.8125 73.1003 46.8125 73.7461C46.8125 73.9961 46.8333 74.1836 46.875 74.3086C46.9375 74.4128 47.0625 74.4649 47.25 74.4649C47.4792 74.444 47.8229 74.3294 48.2812 74.1211C48.7396 73.8919 49.2708 73.5586 49.875 73.1211C50.4792 72.6836 51.125 72.1524 51.8125 71.5274C52.5208 70.8815 53.2188 70.1315 53.9062 69.2774L54.625 69.9024C53.75 71.0065 52.7604 72.0586 51.6562 73.0586C50.5729 74.0378 49.5 74.9024 48.4375 75.6524C47.375 76.4024 46.375 76.9961 45.4375 77.4336C44.5 77.8711 43.7396 78.0899 43.1562 78.0899C43.0521 78.0899 42.9167 78.0482 42.75 77.9649C42.5833 77.8815 42.4167 77.7461 42.25 77.5586C42.0833 77.3711 41.9375 77.1107 41.8125 76.7774C41.6875 76.444 41.625 76.0274 41.625 75.5274C41.625 75.2774 41.6562 74.9649 41.7188 74.5899C41.7812 74.194 41.8542 73.7982 41.9375 73.4024C42.0208 72.9857 42.1042 72.6107 42.1875 72.2774C42.2917 71.9232 42.3646 71.6628 42.4062 71.4961C42.5938 70.7669 42.8542 69.9544 43.1875 69.0586C43.5417 68.1419 43.9167 67.194 44.3125 66.2149C44.7083 65.2357 45.1146 64.2669 45.5312 63.3086C45.9479 62.3294 46.3229 61.4232 46.6562 60.5899C46.9896 59.7357 47.2604 58.9961 47.4688 58.3711C47.6771 57.7253 47.7812 57.2357 47.7812 56.9024C47.7812 56.6107 47.6979 56.4649 47.5312 56.4649C47.3229 56.4649 46.9583 56.694 46.4375 57.1524C45.9375 57.6107 45.375 58.1836 44.75 58.8711C44.1458 59.5378 43.5312 60.2461 42.9062 60.9961C42.2812 61.7253 41.75 62.3711 41.3125 62.9336C40.875 64.2044 40.4167 65.5169 39.9375 66.8711C39.4583 68.2044 39 69.5274 38.5625 70.8399C38.125 72.1315 37.7188 73.3607 37.3438 74.5274C36.9896 75.694 36.6875 76.7357 36.4375 77.6524ZM68.6875 42.5899C68.4375 43.1732 68.1458 43.8711 67.8125 44.6836C67.5 45.4961 67.1562 46.3815 66.7812 47.3399C66.4062 48.2982 66.0104 49.319 65.5938 50.4024C65.1979 51.4857 64.7812 52.5899 64.3438 53.7149L68.6875 53.5899L68.125 55.0586L63.8125 55.1211C63.1042 57.0169 62.4167 58.9128 61.75 60.8086C61.0833 62.6836 60.4792 64.4336 59.9375 66.0586C59.4167 67.6836 58.9896 69.1107 58.6562 70.3399C58.3438 71.569 58.1875 72.4753 58.1875 73.0586C58.1875 73.4128 58.2292 73.6628 58.3125 73.8086C58.3958 73.9336 58.5729 73.9961 58.8438 73.9961C59.0104 73.9961 59.3542 73.8503 59.875 73.5586C60.4167 73.2461 61.0312 72.8086 61.7188 72.2461C62.4271 71.6836 63.1562 71.0065 63.9062 70.2149C64.6771 69.4232 65.3958 68.5482 66.0625 67.5899L66.75 68.2461C66.0208 69.3086 65.1354 70.4232 64.0938 71.5899C63.0729 72.7357 62.0208 73.7982 60.9375 74.7774C59.8542 75.7357 58.7917 76.5274 57.75 77.1524C56.7292 77.7774 55.8542 78.0899 55.125 78.0899C55.0208 78.0899 54.8229 78.0378 54.5312 77.9336C54.2396 77.8503 54.0104 77.7149 53.8438 77.5274C53.7188 77.3607 53.5833 77.0065 53.4375 76.4649C53.2708 75.9232 53.1875 75.2149 53.1875 74.3399C53.1875 73.7357 53.3542 72.7669 53.6875 71.4336C54 70.1003 54.4271 68.5586 54.9688 66.8086C55.4896 65.0586 56.0833 63.1836 56.75 61.1836C57.4375 59.1628 58.1354 57.1628 58.8438 55.1836L55.25 55.2461L55.75 53.9024L59.2812 53.8399L63.1875 43.2774C63.5833 43.1315 64.0833 43.0065 64.6875 42.9024C65.2917 42.7982 65.8854 42.7044 66.4688 42.6211C67.1562 42.5378 67.8542 42.4649 68.5625 42.4024C68.5625 42.444 68.5833 42.4753 68.625 42.4961C68.6667 42.5169 68.6875 42.5482 68.6875 42.5899ZM68.3125 77.6524C68.0833 77.694 67.8333 77.7253 67.5625 77.7461C67.0833 77.8086 66.4583 77.8399 65.6875 77.8399C65.3333 77.8399 64.9583 77.819 64.5625 77.7774C64.1667 77.7565 63.7708 77.7149 63.375 77.6524L63.1875 77.3399C63.2917 77.1315 63.4792 76.7044 63.75 76.0586C64 75.4128 64.3021 74.6315 64.6562 73.7149C64.9896 72.7982 65.3542 71.7774 65.75 70.6524C66.1458 69.5274 66.5521 68.3815 66.9688 67.2149C67.3646 66.0482 67.75 64.9024 68.125 63.7774C68.4792 62.6524 68.8021 61.6211 69.0938 60.6836C69.3854 59.7461 69.6146 58.9544 69.7812 58.3086C69.9479 57.6419 70.0312 57.194 70.0312 56.9649C70.0312 56.7357 70.0104 56.5586 69.9688 56.4336C69.9271 56.3086 69.8854 56.194 69.8438 56.0899C69.7812 56.0065 69.7188 55.9232 69.6562 55.8399V55.3711C70.1354 55.0794 70.6875 54.819 71.3125 54.5899C71.9583 54.3607 72.5833 54.1732 73.1875 54.0274C73.875 53.8607 74.5938 53.7149 75.3438 53.5899L75.5 53.7774C75.5 53.9649 75.4479 54.2565 75.3438 54.6524C75.2604 55.0482 75.1458 55.4961 75 55.9961C74.8542 56.4753 74.6979 56.9753 74.5312 57.4961C74.3646 58.0169 74.1979 58.5065 74.0312 58.9649C73.8854 59.4232 73.75 59.819 73.625 60.1524C73.5208 60.4857 73.4583 60.7044 73.4375 60.8086C72.9792 62.0378 72.5312 63.3294 72.0938 64.6836C71.6562 66.0378 71.2292 67.3919 70.8125 68.7461C71.2917 67.5586 71.7917 66.3607 72.3125 65.1524C72.8542 63.9232 73.3958 62.7461 73.9375 61.6211C74.4792 60.4753 75.0312 59.4024 75.5938 58.4024C76.1771 57.3815 76.7396 56.5065 77.2812 55.7774C77.8229 55.0274 78.3542 54.4336 78.875 53.9961C79.4167 53.5586 79.9271 53.3399 80.4062 53.3399C80.5521 53.3399 80.7708 53.4024 81.0625 53.5274C81.3542 53.6315 81.6562 53.7878 81.9688 53.9961C82.2812 54.2044 82.5833 54.4649 82.875 54.7774C83.1875 55.069 83.4375 55.4024 83.625 55.7774C83.7083 55.9024 83.6354 56.2565 83.4062 56.8399C83.1771 57.4024 82.8021 58.0794 82.2812 58.8711C81.7604 59.6419 81.1042 60.4649 80.3125 61.3399C79.5208 62.194 78.5938 62.9857 77.5312 63.7149L76.75 63.3086C77.0833 62.6211 77.3438 62.0378 77.5312 61.5586C77.7396 61.0586 77.8958 60.6315 78 60.2774C78.1042 59.9024 78.1667 59.5794 78.1875 59.3086C78.2292 59.0378 78.25 58.7774 78.25 58.5274C78.25 58.2149 78.1562 58.0586 77.9688 58.0586C77.6771 58.0586 77.3021 58.3503 76.8438 58.9336C76.4062 59.4961 75.9167 60.2669 75.375 61.2461C74.8542 62.2253 74.2917 63.3711 73.6875 64.6836C73.1042 65.9753 72.5 67.3503 71.875 68.8086C71.2708 70.2461 70.6562 71.7253 70.0312 73.2461C69.4271 74.7669 68.8542 76.2357 68.3125 77.6524ZM83.125 61.4024C83.625 60.194 84.2396 59.1107 84.9688 58.1524C85.6979 57.1732 86.5 56.3503 87.375 55.6836C88.25 54.9961 89.1771 54.4753 90.1562 54.1211C91.1354 53.7669 92.125 53.5899 93.125 53.5899C93.5625 53.5899 94.0417 53.7149 94.5625 53.9649C95.1042 54.194 95.6042 54.5169 96.0625 54.9336C96.5208 55.3503 96.8958 55.8607 97.1875 56.4649C97.5 57.0482 97.6562 57.694 97.6562 58.4024C97.6562 59.0065 97.5833 59.7044 97.4375 60.4961C97.2917 61.2669 97.1042 62.069 96.875 62.9024C96.6458 63.7149 96.3958 64.5274 96.125 65.3399C95.8542 66.1524 95.5938 66.9024 95.3438 67.5899C95.0938 68.2565 94.8646 68.8294 94.6562 69.3086C94.4688 69.7878 94.3333 70.1107 94.25 70.2774C93.75 71.5065 93.1354 72.6003 92.4062 73.5586C91.6771 74.5169 90.875 75.3399 90 76.0274C89.125 76.694 88.1979 77.2044 87.2188 77.5586C86.2604 77.9128 85.2812 78.0899 84.2812 78.0899C83.8438 78.0899 83.3646 77.9753 82.8438 77.7461C82.3021 77.5169 81.8021 77.194 81.3438 76.7774C80.8854 76.3399 80.5104 75.8294 80.2188 75.2461C79.9062 74.6628 79.75 74.0169 79.75 73.3086C79.75 72.6836 79.8229 71.9857 79.9688 71.2149C80.1146 70.4232 80.3021 69.6211 80.5312 68.8086C80.7604 67.9753 81.0104 67.1524 81.2812 66.3399C81.5521 65.5274 81.8125 64.7878 82.0625 64.1211C82.3125 63.4544 82.5312 62.8815 82.7188 62.4024C82.9062 61.9024 83.0417 61.569 83.125 61.4024ZM91.7812 55.3086C91.3021 55.3086 90.7812 55.7357 90.2188 56.5899C89.6771 57.4232 89.125 58.4961 88.5625 59.8086C88.0208 61.1211 87.4896 62.5586 86.9688 64.1211C86.4688 65.6628 86.0208 67.1524 85.625 68.5899C85.25 70.0274 84.9375 71.2982 84.6875 72.4024C84.4583 73.4857 84.3438 74.2149 84.3438 74.5899C84.3438 75.194 84.4583 75.6315 84.6875 75.9024C84.9167 76.1732 85.2292 76.3086 85.625 76.3086C85.9792 76.3086 86.3542 76.069 86.75 75.5899C87.1458 75.0899 87.5521 74.4336 87.9688 73.6211C88.3854 72.8086 88.7917 71.8711 89.1875 70.8086C89.6042 69.7461 90 68.6524 90.375 67.5274C90.75 66.3815 91.0938 65.2461 91.4062 64.1211C91.7396 62.9961 92.0208 61.9544 92.25 60.9961C92.5 60.0378 92.6875 59.2149 92.8125 58.5274C92.9583 57.819 93.0312 57.3294 93.0312 57.0586C93.0312 56.4544 92.9167 56.0169 92.6875 55.7461C92.4583 55.4544 92.1562 55.3086 91.7812 55.3086ZM112.156 43.8086C111.635 45.3503 111.021 47.1107 110.312 49.0899C109.604 51.0482 108.875 53.069 108.125 55.1524C107.396 57.2149 106.667 59.2669 105.938 61.3086C105.208 63.3503 104.562 65.2149 104 66.9024C103.438 68.569 102.979 69.9961 102.625 71.1836C102.271 72.3711 102.094 73.1419 102.094 73.4961C102.094 73.8711 102.25 74.0586 102.562 74.0586C102.771 74.0378 103.104 73.9232 103.562 73.7149C104.021 73.4857 104.552 73.1524 105.156 72.7149C105.76 72.2774 106.406 71.7461 107.094 71.1211C107.802 70.4753 108.51 69.7253 109.219 68.8711L109.906 69.5274C108.99 70.6315 108 71.7044 106.938 72.7461C105.896 73.7669 104.865 74.6732 103.844 75.4649C102.844 76.2565 101.906 76.8919 101.031 77.3711C100.156 77.8503 99.4271 78.0899 98.8438 78.0899C98.5521 78.0899 98.3125 77.9544 98.125 77.6836C97.9375 77.4336 97.7917 77.1211 97.6875 76.7461C97.5625 76.3503 97.4792 75.9336 97.4375 75.4961C97.3958 75.0378 97.375 74.6211 97.375 74.2461C97.375 74.1628 97.3854 74.0378 97.4062 73.8711C97.4062 73.6836 97.4167 73.4857 97.4375 73.2774C97.4583 73.0482 97.4896 72.8294 97.5312 72.6211C97.5521 72.3919 97.5833 72.194 97.625 72.0274C98.0208 70.6315 98.4896 69.1107 99.0312 67.4649C99.5521 65.819 100.115 64.1211 100.719 62.3711C101.323 60.6211 101.948 58.8503 102.594 57.0586C103.24 55.2669 103.865 53.5378 104.469 51.8711C105.094 50.1836 105.677 48.6003 106.219 47.1211C106.76 45.6211 107.24 44.2982 107.656 43.1524C108.073 41.9857 108.396 41.0378 108.625 40.3086C108.875 39.5586 109 39.1003 109 38.9336C109 38.4753 108.875 38.1628 108.625 37.9961C108.396 37.8086 108.104 37.7253 107.75 37.7461C107.396 37.7669 107.01 37.8503 106.594 37.9961C106.177 38.1211 105.792 38.2669 105.438 38.4336L105.031 37.5899C107.177 36.5482 108.896 35.819 110.188 35.4024C111.5 34.9857 112.406 34.7774 112.906 34.7774C113.052 34.7774 113.219 34.8399 113.406 34.9649C113.615 35.069 113.802 35.2253 113.969 35.4336C114.135 35.6419 114.281 35.8815 114.406 36.1524C114.531 36.4024 114.594 36.6628 114.594 36.9336C114.594 37.1003 114.354 37.7982 113.875 39.0274C113.396 40.2357 112.823 41.8294 112.156 43.8086ZM116.969 91.1524C116.594 91.319 116.177 91.4336 115.719 91.4961C115.24 91.5794 114.76 91.6315 114.281 91.6524C113.802 91.694 113.354 91.7044 112.938 91.6836C112.5 91.6836 112.135 91.6836 111.844 91.6836L111.656 91.3399C111.99 90.6732 112.438 89.6211 113 88.1836C113.542 86.7669 114.167 85.0899 114.875 83.1524C115.562 81.2357 116.302 79.1419 117.094 76.8711C117.865 74.6003 118.656 72.2774 119.469 69.9024C119.865 68.694 120.281 67.4232 120.719 66.0899C121.156 64.7565 121.552 63.4961 121.906 62.3086C122.26 61.1211 122.552 60.0794 122.781 59.1836C123.031 58.2669 123.156 57.6419 123.156 57.3086C123.156 57.0794 123.125 56.8815 123.062 56.7149C123.021 56.5274 122.969 56.3711 122.906 56.2461C122.823 56.1003 122.74 55.9649 122.656 55.8399V55.3711C123.115 55.0794 123.667 54.819 124.312 54.5899C124.958 54.3607 125.583 54.1732 126.188 54.0274C126.875 53.8607 127.594 53.7149 128.344 53.5899L128.469 53.7774C128.469 53.9857 128.438 54.2878 128.375 54.6836C128.312 55.0586 128.229 55.4857 128.125 55.9649C128.042 56.444 127.938 56.944 127.812 57.4649C127.708 57.9649 127.594 58.444 127.469 58.9024C128.073 58.069 128.646 57.2878 129.188 56.5586C129.729 55.8086 130.25 55.1628 130.75 54.6211C131.25 54.0586 131.719 53.6211 132.156 53.3086C132.615 52.9753 133.052 52.8086 133.469 52.8086C133.74 52.8086 134.062 52.9232 134.438 53.1524C134.812 53.3607 135.167 53.6419 135.5 53.9961C135.854 54.3294 136.146 54.7149 136.375 55.1524C136.625 55.569 136.75 55.9857 136.75 56.4024C136.75 57.1315 136.667 57.9336 136.5 58.8086C136.354 59.6628 136.156 60.5274 135.906 61.4024C135.656 62.2565 135.385 63.1003 135.094 63.9336C134.802 64.7669 134.521 65.5274 134.25 66.2149C133.979 66.8815 133.729 67.4544 133.5 67.9336C133.292 68.4128 133.156 68.7253 133.094 68.8711C132.49 70.2461 131.771 71.4961 130.938 72.6211C130.125 73.7461 129.281 74.7149 128.406 75.5274C127.531 76.3399 126.667 76.9753 125.812 77.4336C124.979 77.8711 124.25 78.0899 123.625 78.0899C122.979 78.0899 122.5 78.0169 122.188 77.8711C121.875 77.7253 121.604 77.569 121.375 77.4024C121.062 78.3399 120.75 79.2878 120.438 80.2461C120.104 81.2044 119.76 82.2149 119.406 83.2774C119.052 84.3607 118.677 85.5378 118.281 86.8086C117.885 88.1003 117.448 89.5482 116.969 91.1524ZM131.5 56.0899C131.292 56.0899 131.021 56.2669 130.688 56.6211C130.375 56.9544 130.01 57.4024 129.594 57.9649C129.177 58.5065 128.719 59.1211 128.219 59.8086C127.74 60.4961 127.229 61.1732 126.688 61.8399C126.417 62.7149 126.073 63.7774 125.656 65.0274C125.26 66.2565 124.844 67.5274 124.406 68.8399C123.99 70.1315 123.583 71.3919 123.188 72.6211C122.792 73.8294 122.469 74.8503 122.219 75.6836C122.406 75.9128 122.646 76.1107 122.938 76.2774C123.229 76.4232 123.542 76.4961 123.875 76.4961C124.396 76.4961 124.948 76.1003 125.531 75.3086C126.135 74.4961 126.729 73.4649 127.312 72.2149C127.917 70.9649 128.49 69.5899 129.031 68.0899C129.594 66.569 130.083 65.1003 130.5 63.6836C130.917 62.2669 131.25 60.9961 131.5 59.8711C131.75 58.7253 131.875 57.8919 131.875 57.3711C131.875 57.2878 131.865 57.1836 131.844 57.0586C131.844 56.9128 131.823 56.7669 131.781 56.6211C131.76 56.4753 131.729 56.3503 131.688 56.2461C131.646 56.1419 131.583 56.0899 131.5 56.0899ZM139.719 78.0899C139.26 78.0899 138.802 77.944 138.344 77.6524C137.885 77.3399 137.469 76.9544 137.094 76.4961C136.719 76.0169 136.417 75.4961 136.188 74.9336C135.938 74.3711 135.812 73.8294 135.812 73.3086C135.812 72.6836 135.896 71.9753 136.062 71.1836C136.208 70.3919 136.406 69.569 136.656 68.7149C136.885 67.8607 137.146 67.0169 137.438 66.1836C137.729 65.3503 138.01 64.5899 138.281 63.9024C138.531 63.194 138.76 62.5899 138.969 62.0899C139.156 61.5899 139.292 61.2565 139.375 61.0899C139.792 60.0899 140.438 59.1211 141.312 58.1836C142.208 57.2461 143.177 56.4128 144.219 55.6836C145.281 54.9544 146.344 54.3711 147.406 53.9336C148.49 53.4961 149.438 53.2774 150.25 53.2774C150.917 53.2774 151.458 53.6419 151.875 54.3711C152.292 55.1003 152.5 56.0169 152.5 57.1211C152.5 57.6836 152.365 58.2357 152.094 58.7774C151.844 59.319 151.51 59.8294 151.094 60.3086C150.698 60.7878 150.26 61.2357 149.781 61.6524C149.323 62.069 148.885 62.4336 148.469 62.7461L141.938 67.7461C141.562 69.1628 141.25 70.4232 141 71.5274C140.771 72.6107 140.656 73.3503 140.656 73.7461C140.656 74.3503 140.74 74.8086 140.906 75.1211C141.073 75.4336 141.417 75.5899 141.938 75.5899C143.042 75.5899 144.188 75.0482 145.375 73.9649C146.562 72.8607 147.719 71.1003 148.844 68.6836L149.75 69.2774C149.188 70.5899 148.531 71.7878 147.781 72.8711C147.052 73.9544 146.26 74.8815 145.406 75.6524C144.552 76.4232 143.635 77.0274 142.656 77.4649C141.698 77.8815 140.719 78.0899 139.719 78.0899ZM147.969 55.0586C147.552 55.0586 147.104 55.3815 146.625 56.0274C146.146 56.6732 145.667 57.5169 145.188 58.5586C144.708 59.5794 144.24 60.7461 143.781 62.0586C143.323 63.3503 142.906 64.6419 142.531 65.9336L147.844 61.7149C148.094 60.819 148.323 59.944 148.531 59.0899C148.74 58.2149 148.844 57.5586 148.844 57.1211C148.844 56.8919 148.823 56.6628 148.781 56.4336C148.76 56.1836 148.719 55.9544 148.656 55.7461C148.594 55.5378 148.5 55.3711 148.375 55.2461C148.271 55.1211 148.135 55.0586 147.969 55.0586ZM167.188 42.5899C166.938 43.1732 166.646 43.8711 166.312 44.6836C166 45.4961 165.656 46.3815 165.281 47.3399C164.906 48.2982 164.51 49.319 164.094 50.4024C163.698 51.4857 163.281 52.5899 162.844 53.7149L167.188 53.5899L166.625 55.0586L162.312 55.1211C161.604 57.0169 160.917 58.9128 160.25 60.8086C159.583 62.6836 158.979 64.4336 158.438 66.0586C157.917 67.6836 157.49 69.1107 157.156 70.3399C156.844 71.569 156.688 72.4753 156.688 73.0586C156.688 73.4128 156.729 73.6628 156.812 73.8086C156.896 73.9336 157.073 73.9961 157.344 73.9961C157.51 73.9961 157.854 73.8503 158.375 73.5586C158.917 73.2461 159.531 72.8086 160.219 72.2461C160.927 71.6836 161.656 71.0065 162.406 70.2149C163.177 69.4232 163.896 68.5482 164.562 67.5899L165.25 68.2461C164.521 69.3086 163.635 70.4232 162.594 71.5899C161.573 72.7357 160.521 73.7982 159.438 74.7774C158.354 75.7357 157.292 76.5274 156.25 77.1524C155.229 77.7774 154.354 78.0899 153.625 78.0899C153.521 78.0899 153.323 78.0378 153.031 77.9336C152.74 77.8503 152.51 77.7149 152.344 77.5274C152.219 77.3607 152.083 77.0065 151.938 76.4649C151.771 75.9232 151.688 75.2149 151.688 74.3399C151.688 73.7357 151.854 72.7669 152.188 71.4336C152.5 70.1003 152.927 68.5586 153.469 66.8086C153.99 65.0586 154.583 63.1836 155.25 61.1836C155.938 59.1628 156.635 57.1628 157.344 55.1836L153.75 55.2461L154.25 53.9024L157.781 53.8399L161.688 43.2774C162.083 43.1315 162.583 43.0065 163.188 42.9024C163.792 42.7982 164.385 42.7044 164.969 42.6211C165.656 42.5378 166.354 42.4649 167.062 42.4024C167.062 42.444 167.083 42.4753 167.125 42.4961C167.167 42.5169 167.188 42.5482 167.188 42.5899Z" fill="black"/>
</svg>
